<svg width="12" height="12" viewBox="0 0 12 12" fill="none" xmlns="http://www.w3.org/2000/svg">
<path fill-rule="evenodd" clip-rule="evenodd" d="M4.22571 10.2557C4.36693 10.4072 4.60422 10.4155 4.75571 10.2743L8.51662 6.76818C8.71894 6.57957 8.86326 6.32442 8.87433 6.03253C8.88566 5.73368 8.75506 5.45409 8.51662 5.23181L4.75571 1.7257C4.60422 1.58448 4.36693 1.5928 4.22571 1.74429C4.08448 1.89578 4.0928 2.13307 4.24429 2.27429L8.0052 5.7804C8.11122 5.87924 8.12664 5.95741 8.12487 6.00411C8.12283 6.05777 8.09492 6.13596 8.0052 6.2196L4.24429 9.7257C4.0928 9.86693 4.08448 10.1042 4.22571 10.2557Z" fill="#808080"/>
</svg>
