<svg width="16" height="16" viewBox="0 0 16 16" fill="none" xmlns="http://www.w3.org/2000/svg">
<path fill-rule="evenodd" clip-rule="evenodd" d="M2.32568 5.63428C2.1237 5.82258 2.1126 6.13896 2.3009 6.34095L6.97571 11.3555C7.2272 11.6253 7.5674 11.8177 7.95658 11.8324C8.35505 11.8475 8.72784 11.6734 9.02421 11.3555L13.699 6.34095C13.8873 6.13897 13.8762 5.82258 13.6742 5.63428C13.4723 5.44598 13.1559 5.45707 12.9676 5.65906L8.29276 10.6736C8.16098 10.815 8.05674 10.8355 7.99448 10.8332C7.92293 10.8304 7.81868 10.7932 7.70716 10.6736L3.03235 5.65905C2.84405 5.45707 2.52767 5.44598 2.32568 5.63428Z" fill="#808080"/>
</svg>
