<svg width="24" height="24" viewBox="0 0 24 24" fill="none" xmlns="http://www.w3.org/2000/svg">
<path fill-rule="evenodd" clip-rule="evenodd" d="M17.0301 8.5625H6.96993C6.0491 8.5625 5.28728 9.27906 5.23095 10.1982L4.73967 18.2137C4.67825 19.2159 5.47452 20.0625 6.47865 20.0625H17.5214C18.5255 20.0625 19.3218 19.2159 19.2604 18.2137L18.7691 10.1982C18.7128 9.27906 17.9509 8.5625 17.0301 8.5625ZM6.96993 6.5625C4.99205 6.5625 3.35569 8.10163 3.23469 10.0758L2.74342 18.0913C2.61148 20.2441 4.32183 22.0625 6.47865 22.0625H17.5214C19.6782 22.0625 21.3886 20.2441 21.2566 18.0913L20.7654 10.0758C20.6444 8.10163 19.008 6.5625 17.0301 6.5625H6.96993Z" fill="#484848"/>
<path fill-rule="evenodd" clip-rule="evenodd" d="M12.125 3.63889C10.3676 3.63889 8.88883 5.12501 8.88883 7.02611V9.25011C8.88883 9.74097 8.49091 10.1389 8.00005 10.1389C7.50919 10.1389 7.11127 9.74097 7.11127 9.25011V7.02611C7.11127 4.20407 9.32617 1.86133 12.125 1.86133C14.9239 1.86133 17.1388 4.20407 17.1388 7.02611V9.25011C17.1388 9.74097 16.7409 10.1389 16.25 10.1389C15.7592 10.1389 15.3613 9.74097 15.3613 9.25011V7.02611C15.3613 5.12501 13.8825 3.63889 12.125 3.63889Z" fill="#484848"/>
</svg>
