<svg width="16" height="16" viewBox="0 0 16 16" fill="none" xmlns="http://www.w3.org/2000/svg">
<path d="M12.4076 2.8851C12.6028 2.68991 12.9193 2.69005 13.1146 2.8851C13.3099 3.08036 13.3099 3.39687 13.1146 3.59213L8.75427 7.95248L13.1146 12.3128C13.3099 12.5081 13.3099 12.8246 13.1146 13.0199C12.9194 13.2151 12.6029 13.2151 12.4076 13.0199L8.04724 8.65952L3.68689 13.0199C3.49163 13.2151 3.17512 13.2151 2.97986 13.0199C2.78481 12.8246 2.78467 12.508 2.97986 12.3128L7.34021 7.95248L2.97986 3.59213C2.7846 3.39687 2.7846 3.08036 2.97986 2.8851C3.17512 2.68985 3.49163 2.68984 3.68689 2.8851L8.04724 7.24545L12.4076 2.8851Z" fill="#383838"/>
</svg>
