<svg width="12" height="12" viewBox="0 0 12 12" fill="none" xmlns="http://www.w3.org/2000/svg">
<path fill-rule="evenodd" clip-rule="evenodd" d="M6.55378 2.13181C6.99989 1.82715 7.52756 1.6499 8.09402 1.6499C9.69915 1.6499 11 3.05567 11 4.79025C11 5.85242 10.4872 6.82224 9.7641 7.54267L6.49762 10.4394C6.21366 10.6912 5.78634 10.6912 5.50238 10.4394L2.2359 7.54267C1.51282 6.82224 1 5.85242 1 4.79025C1 3.05567 2.30085 1.6499 3.90598 1.6499C4.47345 1.6499 5.002 1.82778 5.44863 2.13345C5.46809 2.14677 5.4874 2.16034 5.50655 2.17414C5.68598 2.30347 5.85144 2.45375 6 2.62156C6.16441 2.43584 6.34953 2.2716 6.55137 2.13345C6.55218 2.1329 6.55298 2.13236 6.55378 2.13181Z" fill="#E6E6E6"/>
</svg>
