<svg width="24" height="24" viewBox="0 0 24 24" fill="none" xmlns="http://www.w3.org/2000/svg">
<path fill-rule="evenodd" clip-rule="evenodd" d="M13.1076 4.26386C13.9998 3.65454 15.0551 3.30005 16.188 3.30005C19.3983 3.30005 22 6.11158 22 9.58074C22 11.7051 20.9744 13.6447 19.5282 15.0856L12.9952 20.879C12.4273 21.3826 11.5727 21.3826 11.0048 20.879L4.47179 15.0856C3.02564 13.6447 2 11.7051 2 9.58074C2 6.11158 4.60171 3.30005 7.81197 3.30005C8.9469 3.30005 10.004 3.65581 10.8973 4.26715C10.9362 4.29379 10.9748 4.32092 11.0131 4.34852C11.372 4.60719 11.7029 4.90774 12 5.24337C12.3288 4.87193 12.6991 4.54343 13.1027 4.26715C13.1044 4.26605 13.106 4.26496 13.1076 4.26386Z" fill="black" fill-opacity="0.1"/>
<path fill-rule="evenodd" clip-rule="evenodd" d="M12 7.50634L10.8769 6.23764C10.0751 5.33192 8.98691 4.80005 7.81197 4.80005C5.53756 4.80005 3.5 6.82834 3.5 9.58074C3.5 11.2 4.28051 12.765 5.50101 13.9934L12 19.7567L18.499 13.9934C19.7195 12.765 20.5 11.2 20.5 9.58074C20.5 6.82834 18.4624 4.80005 16.188 4.80005C15.0131 4.80005 13.9249 5.33192 13.1231 6.23764L12 7.50634ZM19.5282 15.0856L12.9952 20.879C12.4273 21.3826 11.5727 21.3826 11.0048 20.879L4.47179 15.0856C3.02564 13.6447 2 11.7051 2 9.58074C2 6.11158 4.60171 3.30005 7.81197 3.30005C8.94691 3.30005 10.004 3.65581 10.8973 4.26715C11.3009 4.54344 11.6712 4.87192 12 5.24337C12.3288 4.87192 12.6991 4.54343 13.1027 4.26715C13.996 3.65581 15.0531 3.30005 16.188 3.30005C19.3983 3.30005 22 6.11158 22 9.58074C22 11.7051 20.9744 13.6447 19.5282 15.0856Z" fill="white"/>
</svg>
