<svg width="16" height="16" viewBox="0 0 16 16" fill="none" xmlns="http://www.w3.org/2000/svg">
<path fill-rule="evenodd" clip-rule="evenodd" d="M8.49996 2.66666C8.49996 2.39051 8.2761 2.16666 7.99996 2.16666C7.72382 2.16666 7.49996 2.39051 7.49996 2.66666L7.49996 7.49999L2.66663 7.49999C2.39048 7.49999 2.16663 7.72385 2.16663 7.99999C2.16663 8.27613 2.39048 8.49999 2.66663 8.49999L7.49996 8.49999V13.3333C7.49996 13.6095 7.72382 13.8333 7.99996 13.8333C8.2761 13.8333 8.49996 13.6095 8.49996 13.3333V8.49999L13.3333 8.49999C13.6094 8.49999 13.8333 8.27613 13.8333 7.99999C13.8333 7.72385 13.6094 7.49999 13.3333 7.49999L8.49996 7.49999V2.66666Z" fill="#383838"/>
</svg>
