<svg width="16" height="16" viewBox="0 0 16 16" fill="none" xmlns="http://www.w3.org/2000/svg">
<path d="M6.97725 1.99598C7.3956 1.11246 8.60442 1.11246 9.02277 1.99598L10.1993 4.4807C10.3654 4.83154 10.6866 5.07472 11.058 5.13098L13.6889 5.52944C14.6244 5.67112 14.9979 6.86925 14.321 7.55696L12.4172 9.49119C12.1484 9.76427 12.0258 10.1577 12.0892 10.5433L12.5387 13.2744C12.6984 14.2455 11.7205 14.986 10.8838 14.5275L8.53076 13.2381C8.19849 13.056 7.80153 13.056 7.46926 13.2381L5.11623 14.5275C4.27952 14.986 3.30158 14.2455 3.46137 13.2744L3.91078 10.5433C3.97424 10.1577 3.85158 9.76427 3.58279 9.49119L1.67899 7.55696C1.0021 6.86925 1.37564 5.67112 2.3111 5.52944L4.94198 5.13098C5.31347 5.07472 5.6346 4.83154 5.80073 4.4807L6.97725 1.99598Z" fill="#FFC822"/>
</svg>
