<svg width="12" height="12" viewBox="0 0 12 12" fill="none" xmlns="http://www.w3.org/2000/svg">
<path d="M5.23293 1.49698C5.54669 0.83434 6.4533 0.83434 6.76707 1.49698L7.64946 3.36051C7.77406 3.62365 8.01491 3.80603 8.29352 3.84823L10.2667 4.14707C10.9683 4.25333 11.2484 5.15193 10.7408 5.66771L9.31291 7.11838C9.11132 7.3232 9.01933 7.61828 9.06692 7.90747L9.40398 9.9558C9.52383 10.6841 8.79037 11.2395 8.16283 10.8956L6.39806 9.92858C6.14886 9.79202 5.85114 9.79202 5.60193 9.92858L3.83717 10.8956C3.20963 11.2395 2.47617 10.6841 2.59602 9.9558L2.93308 7.90747C2.98067 7.61828 2.88868 7.3232 2.68709 7.11838L1.25924 5.66771C0.75157 5.15193 1.03172 4.25333 1.73332 4.14707L3.70648 3.84823C3.98509 3.80603 4.22594 3.62365 4.35054 3.36051L5.23293 1.49698Z" fill="#E6E6E6"/>
</svg>
